<?xml version="1.0" encoding="UTF-8"?>
<svg xmlns="http://www.w3.org/2000/svg" width="76" height="24" viewBox="0 0 76 24">
    <path d="M16.5 3H2v18h15c3.038 0 5.5-2.46 5.5-5.5 0-1.4-.524-2.68-1.385-3.65-.08-.09-.089-.22-.023-.32.574-.87.908-1.91.908-3.03C22 5.46 19.538 3 16.5 3Zm-.796 5.99c.457-.05.892-.17 1.296-.35-.302.45-.684.84-1.125 1.15.004.1.006.19.006.29 0 2.94-2.269 6.32-6.421 6.32-1.274 0-2.46-.37-3.459-1 .177.02.357.03.539.03 1.057 0 2.03-.35 2.803-.95-.988-.02-1.821-.66-2.109-1.54.138.03.28.04.425.04.206 0 .405-.03.595-.08-1.033-.2-1.811-1.1-1.811-2.18v-.03c.305.17.652.27 1.023.28-.606-.4-1.004-1.08-1.004-1.85 0-.4.111-.78.305-1.11 1.113 1.34 2.775 2.22 4.652 2.32-.038-.17-.058-.33-.058-.51 0-1.23 1.01-2.22 2.256-2.22.649 0 1.235.27 1.647.7.514-.1.997-.28 1.433-.54-.168.52-.526.96-.992 1.23Z"/>
    <path d="M30.862 21.003H25.64V2.625h5.222v18.378Zm10.35.482c-2.163 0-3.844-.54-5.044-1.622-1.183-1.082-1.775-2.62-1.775-4.614V8.33h5.222v5.626c0 1.37.33 2.366.99 2.99.658.627 1.57.94 2.737.94 1.436 0 2.535-.39 3.295-1.167.76-.795 1.14-1.8 1.14-3.017V8.33H53v12.673h-5.12v-2.89c-.56 1.1-1.43 1.936-2.612 2.51-1.183.575-2.535.862-4.056.862Zm33.311-5.729H60.53c.186.794.7 1.41 1.546 1.85.845.44 1.943.66 3.295.66 1 0 1.91-.152 2.74-.457.844-.322 1.495-.76 1.95-1.32l3.956 1.725c-.896 1.065-2.096 1.876-3.6 2.433-1.487.558-3.245.837-5.273.837-1.994 0-3.71-.262-5.146-.786-1.436-.542-2.543-1.32-3.32-2.333-.76-1.03-1.14-2.248-1.14-3.65 0-1.42.388-2.645 1.165-3.676.777-1.03 1.876-1.816 3.295-2.356 1.437-.558 3.11-.837 5.02-.837 1.994 0 3.7.296 5.12.887 1.437.575 2.527 1.403 3.27 2.485.744 1.08 1.116 2.373 1.116 3.877v.66Zm-5.173-2.585c-.032-.76-.455-1.377-1.266-1.85-.794-.473-1.825-.71-3.093-.71-1.25 0-2.272.228-3.066.684-.794.457-1.267 1.082-1.42 1.876h8.845Z"/>
</svg>
