<?xml version="1.0" encoding="UTF-8"?>
<svg xmlns="http://www.w3.org/2000/svg" width="24" height="24" viewBox="0 0 24 24">
    <path d="M16.5 3H2v18h15c3.038 0 5.5-2.46 5.5-5.5 0-1.4-.524-2.68-1.385-3.65-.08-.09-.089-.22-.023-.32.574-.87.908-1.91.908-3.03C22 5.46 19.538 3 16.5 3Z"/>
    <path d="M6.001 15.4c.999.63 2.185 1 3.459 1 4.152 0 6.421-3.38 6.421-6.32 0-.1-.002-.19-.006-.29.441-.31.823-.7 1.125-1.15-.404.18-.838.3-1.295.35h-.001.001c.466-.27.824-.71.992-1.23-.436.26-.919.44-1.433.54-.412-.43-.998-.7-1.647-.7-1.246 0-2.256.99-2.256 2.22 0 .18.02.34.058.51-1.877-.1-3.539-.98-4.652-2.32-.194.33-.305.71-.305 1.11 0 .77.398 1.45 1.004 1.85-.371-.01-.718-.11-1.023-.28v.03c0 1.08.778 1.98 1.811 2.18-.19.05-.389.08-.595.08-.145 0-.287-.01-.425-.04.288.88 1.121 1.52 2.109 1.54-.773.6-1.746.95-2.803.95-.182 0-.362-.01-.539-.03Z" fill="#fff"/>
</svg>
